Normalized EMG Linear Envelopes
nRows=167
nColumns=4

endheader
time	 med_gas_r	  soleus_r	 tib_ant_r	
2.66112	  0.104640	  0.105002	  0.035785	
2.69438	  0.106662	  0.105467	  0.036203	
2.72765	  0.108023	  0.106238	  0.036696	
2.76091	  0.109144	  0.107094	  0.037234	
2.79418	  0.110157	  0.107539	  0.037685	
2.82744	  0.111272	  0.107334	  0.038002	
2.8607	  0.112979	  0.106583	  0.038043	
2.89397	  0.115248	  0.105480	  0.037571	
2.92723	  0.117445	  0.104366	  0.036653	
2.9605	  0.119113	  0.103319	  0.035479	
2.99376	  0.120410	  0.102655	  0.034159	
3.02702	  0.121526	  0.102854	  0.032919	
3.06029	  0.122599	  0.104359	  0.031967	
3.09355	  0.123327	  0.107305	  0.031388	
3.12682	  0.123310	  0.111134	  0.031133	
3.16008	  0.122671	  0.114887	  0.031147	
3.19334	  0.121746	  0.118182	  0.031450	
3.22661	  0.121047	  0.121066	  0.032077	
3.25987	  0.120673	  0.123391	  0.033004	
3.29314	  0.120919	  0.124929	  0.034040	
3.3264	  0.121883	  0.125889	  0.034957	
3.35966	  0.123293	  0.126688	  0.035840	
3.39293	  0.124732	  0.127062	  0.036734	
3.42619	  0.125595	  0.126410	  0.037545	
3.45946	  0.125532	  0.124594	  0.038248	
3.49272	  0.124067	  0.122312	  0.038767	
3.52598	  0.120941	  0.120378	  0.038994	
3.55925	  0.116277	  0.119294	  0.039005	
3.59251	  0.110657	  0.119309	  0.038866	
3.62578	  0.105105	  0.120826	  0.038545	
3.65904	  0.100645	  0.123774	  0.038160	
3.6923	  0.097566	  0.127526	  0.037828	
3.72557	  0.095762	  0.130864	  0.037519	
3.75883	  0.095116	  0.132930	  0.037269	
3.7921	  0.095561	  0.133454	  0.037194	
3.82536	  0.096992	  0.132704	  0.037278	
3.85862	  0.099034	  0.131459	  0.037307	
3.89189	  0.101114	  0.130159	  0.037215	
3.92515	  0.102666	  0.128806	  0.037082	
3.95842	  0.103473	  0.127310	  0.036888	
3.99168	  0.103691	  0.125013	  0.036628	
4.02494	  0.103622	  0.122107	  0.036435	
4.05821	  0.103521	  0.119716	  0.036379	
4.09147	  0.104001	  0.118462	  0.036579	
4.12474	  0.105828	  0.118922	  0.037025	
4.158	  0.109181	  0.121220	  0.037519	
4.19126	  0.113735	  0.125470	  0.037985	
4.22453	  0.119638	  0.131566	  0.038460	
4.25779	  0.127385	  0.139007	  0.038941	
4.29106	  0.137310	  0.147382	  0.039461	
4.32432	  0.149035	  0.156236	  0.040112	
4.35758	  0.161250	  0.164038	  0.040895	
4.39085	  0.171628	  0.168599	  0.041749	
4.42411	  0.177367	  0.169076	  0.042658	
4.45738	  0.179258	  0.164738	  0.043529	
4.49064	  0.179511	  0.156384	  0.044431	
4.5239	  0.179503	  0.146719	  0.045391	
4.55717	  0.179699	  0.137595	  0.046413	
4.59043	  0.179298	  0.129760	  0.047520	
4.6237	  0.178075	  0.122940	  0.048723	
4.65696	  0.179816	  0.116659	  0.050075	
4.69022	  0.187686	  0.111172	  0.051434	
4.72349	  0.201990	  0.106915	  0.052741	
4.75675	  0.220222	  0.104286	  0.054056	
4.79002	  0.240376	  0.103286	  0.055279	
4.82328	  0.262496	  0.103610	  0.056217	
4.85654	  0.285469	  0.104919	  0.056752	
4.88981	  0.305933	  0.106781	  0.057081	
4.92307	  0.316953	  0.108559	  0.057645	
4.95634	  0.313295	  0.109986	  0.058863	
4.9896	  0.297271	  0.111502	  0.061265	
5.02286	  0.274820	  0.113215	  0.065699	
5.05613	  0.250610	  0.114977	  0.073220	
5.08939	  0.229727	  0.117258	  0.085110	
5.12266	  0.215663	  0.120761	  0.101626	
5.15592	  0.209683	  0.125618	  0.121675	
5.18918	  0.210265	  0.131712	  0.143067	
5.22245	  0.214974	  0.138586	  0.165626	
5.25571	  0.224470	  0.144914	  0.190763	
5.28898	  0.240081	  0.149266	  0.217480	
5.32224	  0.261025	  0.151100	  0.241272	
5.3555	  0.283137	  0.150598	  0.257233	
5.38877	  0.301689	  0.148052	  0.265794	
5.42203	  0.313483	  0.143997	  0.269267	
5.4553	  0.319848	  0.139014	  0.269024	
5.48856	  0.324726	  0.134225	  0.266905	
5.52182	  0.329372	  0.129903	  0.265831	
5.55509	  0.335644	  0.126000	  0.266607	
5.58835	  0.342301	  0.122922	  0.266428	
5.62162	  0.343605	  0.120495	  0.264897	
5.65488	  0.338202	  0.118785	  0.262390	
5.68814	  0.332057	  0.118005	  0.258668	
5.72141	  0.329926	  0.117940	  0.253795	
5.75467	  0.332352	  0.118210	  0.249069	
5.78794	  0.334871	  0.118500	  0.247035	
5.8212	  0.331653	  0.118712	  0.248544	
5.85446	  0.323679	  0.119334	  0.251003	
5.88773	  0.316219	  0.121103	  0.254352	
5.92099	  0.310653	  0.124055	  0.260612	
5.95426	  0.308603	  0.127660	  0.269556	
5.98752	  0.310347	  0.131669	  0.278982	
6.02078	  0.312371	  0.136105	  0.287832	
6.05405	  0.313924	  0.140228	  0.296817	
6.08731	  0.317807	  0.143421	  0.305691	
6.12058	  0.325719	  0.146463	  0.313785	
6.15384	  0.335595	  0.150174	  0.322419	
6.1871	  0.342374	  0.155038	  0.333696	
6.22037	  0.344259	  0.160956	  0.345648	
6.25363	  0.345364	  0.166787	  0.356441	
6.2869	  0.347693	  0.170653	  0.365850	
6.32016	  0.349739	  0.171399	  0.372064	
6.35342	  0.349918	  0.168837	  0.375788	
6.38669	  0.345962	  0.164538	  0.379159	
6.41995	  0.339927	  0.160619	  0.381925	
6.45322	  0.335762	  0.157971	  0.385741	
6.48648	  0.336780	  0.156394	  0.390850	
6.51974	  0.341534	  0.155276	  0.395433	
6.55301	  0.345541	  0.154781	  0.399030	
6.58627	  0.347610	  0.154758	  0.401372	
6.61954	  0.351487	  0.155101	  0.402456	
6.6528	  0.357615	  0.156093	  0.403924	
6.68606	  0.361509	  0.157797	  0.406635	
6.71933	  0.361554	  0.160063	  0.409371	
6.75259	  0.363125	  0.163041	  0.412375	
6.78586	  0.368352	  0.167018	  0.414838	
6.81912	  0.372484	  0.171253	  0.414161	
6.85238	  0.369245	  0.174424	  0.410833	
6.88565	  0.363965	  0.176408	  0.404655	
6.91891	  0.362956	  0.177171	  0.398456	
6.95218	  0.366906	  0.176331	  0.396211	
6.98544	  0.371697	  0.174213	  0.399787	
7.0187	  0.376689	  0.171444	  0.408201	
7.05197	  0.382345	  0.168130	  0.417736	
7.08523	  0.385927	  0.164423	  0.424674	
7.1185	  0.385046	  0.161198	  0.428529	
7.15176	  0.383219	  0.159285	  0.429235	
7.18502	  0.384319	  0.158688	  0.429010	
7.21829	  0.386250	  0.158562	  0.429197	
7.25155	  0.385415	  0.158624	  0.427745	
7.28482	  0.384437	  0.158713	  0.423844	
7.31808	  0.385867	  0.158674	  0.417836	
7.35134	  0.386826	  0.158387	  0.409237	
7.38461	  0.382812	  0.157981	  0.400113	
7.41787	  0.376388	  0.157663	  0.392696	
7.45114	  0.370743	  0.156857	  0.385966	
7.4844	  0.363948	  0.155219	  0.381088	
7.51766	  0.354768	  0.153290	  0.379854	
7.55093	  0.349099	  0.151699	  0.381336	
7.58419	  0.350298	  0.150832	  0.384601	
7.61746	  0.355347	  0.150780	  0.387814	
7.65072	  0.359482	  0.151386	  0.388834	
7.68398	  0.364684	  0.152590	  0.387200	
7.71725	  0.371634	  0.154206	  0.382757	
7.75051	  0.375853	  0.155249	  0.375229	
7.78378	  0.376720	  0.154882	  0.366229	
7.81704	  0.378966	  0.153289	  0.358538	
7.8503	  0.382977	  0.151147	  0.353641	
7.88357	  0.385323	  0.149063	  0.349252	
7.91683	  0.382470	  0.147341	  0.344917	
7.9501	  0.375041	  0.146243	  0.342082	
7.98336	  0.364752	  0.145484	  0.340979	
8.01662	  0.353929	  0.144603	  0.342582	
8.04989	  0.344061	  0.143270	  0.345579	
8.08315	  0.337646	  0.141674	  0.348222	
8.11642	  0.336397	  0.140284	  0.351807	
8.14968	  0.341706	  0.139106	  0.356195	
8.18294	  0.350305	  0.138206	  0.361034	
